<svg xmlns="http://www.w3.org/2000/svg" xml:space="preserve" width="1500" height="240" data-id="lg_vBQMUYpbj6lACG4ChP" data-version="1" viewBox="0 0 1500 240"><g data-padding="20"><g transform="translate(10 3.204)scale(.9733)"><rect width="560" height="106.22" x="69.486" y="-213.96" fill="none" rx="0" ry="0" transform="translate(505.35 264.12)"/><path fill="#096a2e" d="M585.236 129.28V75.89q0-1.13-1.31-1.13h-4.42v-1.69h19.17v1.69h-4.41q-1.32 0-1.32 1.13v53.39q0 1.32 1.32 1.32h4.41v1.69h-19.17v-1.69h4.42q1.31 0 1.31-1.32m29.71-13.44 2.16 8.65q1.41 5.83 4.51 5.83 1.6 0 2.49-1.18.89-1.17.89-2.82 0-1.64-.28-3.05l1.79-.29q.37 1.41.37 3.11 0 3.38-2.02 5.35-2.02 1.98-5.21 1.98-7.9 0-10.34-10.06l-2.17-8.65q-1.59-6.11-4.41-8.51-2.82-2.39-7.99-2.39v-2.07l22.18-26.98h-4.7v-1.69h12.78v1.69h-2.53q-1.51 0-2.64 1.32l-21.05 25.47q7.24.1 10.9 3.95 3.67 3.85 5.27 10.34m20.96 13.45V75.9q0-1.13-1.32-1.13h-4.42v-1.69h19.18v1.69h-4.42q-1.31 0-1.31 1.13v53.39q0 1.32 1.31 1.32h4.42v1.69h-19.18v-1.69h4.42q1.32 0 1.32-1.32m48.78 3h-28.76v-1.69h4.42q1.31 0 1.31-1.32V75.89q0-1.13-1.31-1.13h-4.42v-1.69h19.18v1.69h-4.42q-1.32 0-1.32 1.13v53.77h18.71q2.44 0 2.63-2.07l1.41-11h2.16v4.42q0 8.27.85 12.13-3.01-.85-10.44-.85m21.2-7.04q-7.47-8.18-7.47-22.56t7.47-22.56 19.46-8.18q11.98 0 19.46 8.18 7.47 8.18 7.47 22.56t-7.47 22.56q-7.48 8.18-19.46 8.18-11.99 0-19.46-8.18m5.92-43.24q-5.4 7.61-5.4 20.68t5.4 20.68q5.41 7.61 13.49 7.61 8.09 0 13.54-7.61t5.45-20.68-5.45-20.68-13.54-7.61q-8.08 0-13.49 7.61m94.33 50.29h-3.01l-35.34-52.45v49.44q0 1.32 1.32 1.32h4.41v1.69h-14.66v-1.69h4.42q1.31 0 1.31-1.32V75.9q0-1.13-1.31-1.13h-4.42v-1.69h13.82l30.27 44.74V76.09q0-1.32-1.32-1.32h-4.42v-1.69h14.67v1.69h-4.42q-1.32 0-1.32 1.13Zm43.71 0h-32.33v-2.63l33.65-53.96h-24.63q-2.44 0-2.63 2.07l-1.41 11h-2.16v-4.42q0-8.27-.85-12.13 3.01.85 10.43.85h30.37v2.63l-33.75 53.96h26.7q2.44 0 2.63-2.07l1.41-11h2.16v4.42q0 8.27.85 12.13-3.01-.85-10.44-.85m24.02-7.05q-7.47-8.18-7.47-22.56t7.47-22.56 19.46-8.18q11.98 0 19.45 8.18 7.48 8.18 7.48 22.56t-7.48 22.56q-7.47 8.18-19.45 8.18-11.99 0-19.46-8.18m5.92-43.24q-5.4 7.61-5.4 20.68t5.4 20.68q5.41 7.61 13.49 7.61t13.54-7.61q5.45-7.61 5.45-20.68t-5.45-20.68q-5.46-7.61-13.54-7.61t-13.49 7.61m92.45 50.29h-1.79l-.09-1.32q-.09-1.97-1.5-1.97-.76 0-2.73 1.03-6.11 3.39-12.31 3.39-11.85 0-19.42-8.18-7.56-8.18-7.56-22.51 0-14.34 7.47-22.56 7.47-8.23 19.51-8.23 6.11 0 12.22 3.1 1.97 1.04 2.82 1.04 1.41 0 1.5-1.98l.09-1.59h1.79v16.26h-1.69q-.85-7.24-5.41-10.67t-11.32-3.43q-8.56 0-13.78 7.52-5.21 7.52-5.21 20.58 0 13.07 5.26 20.5 5.27 7.42 13.73 7.42 6.76 0 11.32-3.43t5.41-10.67h1.69Zm14.99-7.05q-7.47-8.18-7.47-22.56t7.47-22.56q7.48-8.18 19.46-8.18 11.99 0 19.46 8.18t7.47 22.56-7.47 22.56-19.46 8.18q-11.98 0-19.46-8.18m5.92-43.24q-5.4 7.61-5.4 20.68t5.4 20.68q5.41 7.61 13.49 7.61 8.09 0 13.54-7.61t5.45-20.68-5.45-20.68-13.54-7.61q-8.08 0-13.49 7.61m89.15 48.31q1.41 0 2.31-1.18.89-1.17.89-2.82 0-1.64-.28-3.05l1.78-.29q.38 1.41.38 3.11 0 3.38-2.02 5.35-2.02 1.98-5.22 1.98-7.99 0-7.99-9.68 0-9.69-2.44-14.25-2.45-4.55-9.97-4.55h-6.11v24.34q0 1.32 1.32 1.32h6.3v1.69h-21.06v-1.69h4.42q1.32 0 1.32-1.32V75.89q0-1.13-1.32-1.13h-4.42v-1.69h23.41q7.89 0 13.44 4.32 5.55 4.33 5.55 11.57 0 5.82-3.62 9.82-3.62 3.99-9.54 5.5 6.67 2.25 8.46 8.08 1.41 4.8 1.41 11.38t3 6.58m-19.17-54.62h-9.5v26.51h9.5q5.64 0 8.79-3.95t3.15-9.3q0-5.36-3.15-9.31t-8.79-3.95m31.3-.93h-4.42v-1.69h22.94q7.99 0 13.49 4.84t5.5 13.02-5.5 13.02-13.49 4.84h-9.5v20.49q0 1.32 1.32 1.32h6.3v1.69h-21.06v-1.69h4.42q1.32 0 1.32-1.32V75.9q0-1.13-1.32-1.13m18.05.94h-9.03v30.46h9.03q5.54 0 8.74-4.56t3.2-10.67-3.2-10.67-8.74-4.56"/><rect width="310.691" height="25.99" x="194.14" y="-173.845" fill="none" rx="0" ry="0" transform="translate(504.85 317.87)"/><path fill="#001f3f" d="M711.396 148.74v1.63h-4.18v13.87h-1.87v-13.87h-4.18v-1.63Zm3.64 9.13v6.37h-1.82l.02-11.66h1.8v2.05q.92-2.17 3.17-2.17.41 0 .64.05v1.79q-.48-.16-.98-.16-1.22 0-2.03 1.13-.8 1.13-.8 2.6m8.99 4.97q1.24 0 1.98-.7.73-.71.73-1.79v-1.49h-2.02q-1.47 0-2.21.57-.73.58-.73 1.45 0 .88.57 1.42.58.54 1.68.54m2.74 1.4v-1.38q-.9 1.5-3.27 1.5-1.63 0-2.63-.97t-1-2.44q0-1.68 1.27-2.61 1.28-.93 3.49-.93h2.11v-.6q0-1.38-.62-2.08t-2.09-.7q-1.86 0-3.31.99v-1.82q1.31-.8 3.45-.8 4.39 0 4.39 4.46v7.38Zm13.93-8.03v8.03h-1.81v-7.54q0-1.29-.66-1.97-.65-.68-1.71-.68-1.31 0-2.27 1.01-.95 1.02-.95 2.81v6.37h-1.8v-11.66h1.8v2.02q1.03-2.18 3.68-2.18 1.7 0 2.71 1.03 1.01 1.04 1.01 2.76m9.96 4.94q0 1.49-1.04 2.36-1.05.88-2.87.88-2.11 0-3.42-.71v-1.78q1.54.92 3.31.92 1.06 0 1.61-.41t.55-1.13q0-.82-.61-1.28t-2.03-1.04q-1.32-.51-2.11-1.26-.79-.76-.79-2.05 0-1.45 1.09-2.31 1.09-.87 2.73-.87 1.81 0 2.92.51v1.73q-1.06-.65-2.9-.65-.92 0-1.46.43-.54.42-.54 1.09 0 .41.16.72t.63.61.69.41q.22.1.96.42 1.47.6 2.3 1.36.82.76.82 2.05m7.6-8.57v1.47h-2.57v10.19h-1.82v-10.19h-2v-1.47h2v-1.08q0-1.7.91-2.69t2.52-.99q.55 0 1.12.16v1.66q-.55-.19-1.05-.19-.74 0-1.21.51-.47.5-.47 1.56v1.06Zm12.14 5.86q0 2.6-1.47 4.31-1.48 1.7-4.05 1.7-2.51 0-3.97-1.69t-1.46-4.27q0-2.6 1.51-4.34 1.5-1.73 3.92-1.73 2.64 0 4.08 1.7t1.44 4.32m-9.06.03q0 1.81.96 3.09.97 1.28 2.58 1.28 1.75 0 2.69-1.26.94-1.25.94-3.11 0-1.93-.9-3.19-.89-1.25-2.73-1.25-1.66 0-2.6 1.29-.94 1.28-.94 3.15m13.24-.6v6.37h-1.81l.02-11.66h1.79v2.05q.92-2.17 3.18-2.17.41 0 .64.05v1.79q-.48-.16-.99-.16-1.22 0-2.02 1.13-.81 1.13-.81 2.6m21.03-1.63v8h-1.82v-7.54q0-2.65-2.23-2.65-1.11 0-1.98 1t-.87 2.82v6.37h-1.82v-7.54q0-2.65-2.23-2.65-1.11 0-1.98 1t-.87 2.82v6.37h-1.8v-11.66h1.8v1.89q.96-2.05 3.28-2.05 2.7 0 3.41 2.28.5-1.11 1.41-1.7.91-.58 2.04-.58 1.82 0 2.74 1.03.92 1.04.92 2.79m4.85-3.65v11.66h-1.82v-11.66Zm-.07-4.51q.34.35.34.85 0 .51-.34.84-.35.34-.85.34-.51 0-.84-.34-.33-.33-.33-.84 0-.5.33-.85.33-.34.84-.34.5 0 .85.34m12.44 8.13v8.03h-1.81v-7.54q0-1.29-.66-1.97t-1.71-.68q-1.31 0-2.27 1.01-.95 1.02-.95 2.81v6.37h-1.8v-11.66h1.8v2.02q1.03-2.18 3.68-2.18 1.7 0 2.71 1.03 1.01 1.04 1.01 2.76m12.36-3.63v10.72q0 2.67-1.47 4.01-1.47 1.35-3.79 1.35-2.12 0-3.61-.72v-1.81q1.47.85 3.45.85 1.67 0 2.64-.9t.97-2.81v-1.31q-1.15 1.98-3.43 1.98-2 0-3.42-1.47-1.41-1.47-1.41-4.09 0-2.6 1.31-4.28t3.43-1.68q2.39 0 3.52 2.09v-1.93Zm-8.18 5.75q0 1.95.96 2.98.97 1.02 2.19 1.02 1.26 0 2.24-.98.98-.97.98-2.91 0-2.23-.95-3.31-.94-1.08-2.18-1.08-1.5 0-2.37 1.19-.87 1.18-.87 3.09m21.24 5.91h-4.69v-15.5h4.6q3.42 0 5.62 2.13 2.2 2.12 2.2 5.5 0 3.36-2.04 5.62-2.04 2.25-5.69 2.25m-.12-13.85h-2.69v12.22h2.78q2.88 0 4.35-1.79 1.47-1.78 1.47-4.45 0-2.53-1.64-4.25-1.65-1.73-4.27-1.73m13.83 12.45q1.24 0 1.97-.7.74-.71.74-1.79v-1.49h-2.02q-1.48 0-2.21.57-.74.58-.74 1.45 0 .88.58 1.42.57.54 1.68.54m2.73 1.4v-1.38q-.89 1.5-3.26 1.5-1.64 0-2.64-.97t-1-2.44q0-1.68 1.28-2.61t3.48-.93h2.12v-.6q0-1.38-.62-2.08t-2.09-.7q-1.87 0-3.32.99v-1.82q1.31-.8 3.45-.8 4.4 0 4.4 4.46v7.38Zm10.59-2.02v1.72q-.76.42-1.7.42-3.45 0-3.45-3.52v-6.79h-1.86v-1.47h1.86v-2.9h1.82v2.9h3.22v1.47h-3.22v6.83q0 1.87 1.75 1.87.89 0 1.58-.53m5.93.62q1.24 0 1.97-.7.74-.71.74-1.79v-1.49h-2.02q-1.48 0-2.21.57-.74.58-.74 1.45 0 .88.58 1.42.57.54 1.68.54m2.73 1.4v-1.38q-.89 1.5-3.26 1.5-1.64 0-2.64-.97t-1-2.44q0-1.68 1.28-2.61t3.48-.93h2.12v-.6q0-1.38-.62-2.08t-2.09-.7q-1.87 0-3.32.99v-1.82q1.32-.8 3.45-.8 4.4 0 4.4 4.46v7.38Zm7.43-2.32-2.96 5.15h-1.59l2.14-5.15Zm11.9-3.38h-2.39v5.7h-1.86v-15.5h4.07q2.69 0 4.24 1.39 1.56 1.39 1.56 3.6 0 2.07-1.55 3.44-1.54 1.37-4.07 1.37m-.16-8.21h-2.23v6.62h2.39q1.75 0 2.74-.91t.99-2.31q0-1.56-1.01-2.48t-2.88-.92m18.32 8.11q0 2.6-1.47 4.31-1.47 1.7-4.05 1.7-2.5 0-3.96-1.69t-1.46-4.27q0-2.6 1.5-4.34 1.51-1.73 3.92-1.73 2.65 0 4.09 1.7 1.43 1.7 1.43 4.32m-9.06.03q0 1.81.97 3.09.96 1.28 2.57 1.28 1.75 0 2.69-1.26.95-1.25.95-3.11 0-1.93-.9-3.19-.9-1.25-2.74-1.25-1.65 0-2.6 1.29-.94 1.28-.94 3.15m17.24 1.95-1.06 3.82h-2.23l-3.59-11.66h1.93l1.13 3.86q.6 2.03 1 3.53.4 1.51.52 2.02l.11.48q.35-1.47 1.68-6.05l1.11-3.84h1.93l1.13 3.84 1.72 6.07q.32-1.35 1.77-6.07l1.17-3.84h1.87l-3.68 11.66h-2.23l-1.11-3.82-1.61-5.82q-.34 1.48-1.56 5.82m20.67 1.52v1.7q-1.36.72-3.32.72-2.64 0-4.26-1.63-1.62-1.62-1.62-4.29 0-2.78 1.44-4.39 1.45-1.61 3.73-1.61 2.19 0 3.47 1.4 1.29 1.41 1.29 3.98 0 .74-.11 1.36h-7.96q.21 1.73 1.31 2.65t2.9.92q1.95 0 3.13-.81m-4.03-7.91q-1.31 0-2.23.94t-1.08 2.69h6.25v-.46q0-1.45-.78-2.31t-2.16-.86m9.04 3.84v6.37h-1.82l.03-11.66h1.79v2.05q.92-2.17 3.17-2.17.42 0 .65.05v1.79q-.49-.16-.99-.16-1.22 0-2.03 1.13-.8 1.13-.8 2.6m7.35-5.28v11.66h-1.82v-11.66Zm-.07-4.51q.34.35.34.85 0 .51-.34.84-.35.34-.85.34-.51 0-.84-.34-.34-.33-.34-.84 0-.5.34-.85.33-.34.84-.34.5 0 .85.34m12.43 8.13v8.03h-1.82v-7.54q0-1.29-.65-1.97-.66-.68-1.72-.68-1.31 0-2.26 1.01-.96 1.02-.96 2.81v6.37h-1.79v-11.66h1.79v2.02q1.04-2.18 3.68-2.18 1.71 0 2.72 1.03 1.01 1.04 1.01 2.76m12.35-3.63v10.72q0 2.67-1.47 4.01-1.47 1.35-3.8 1.35-2.11 0-3.61-.72v-1.81q1.48.85 3.45.85 1.68 0 2.65-.9.96-.9.96-2.81v-1.31q-1.15 1.98-3.42 1.98-2 0-3.42-1.47-1.41-1.47-1.41-4.09 0-2.6 1.31-4.28t3.43-1.68q2.39 0 3.51 2.09v-1.93Zm-8.19 5.75q0 1.95.97 2.98.97 1.02 2.18 1.02 1.27 0 2.25-.98.97-.97.97-2.91 0-2.23-.94-3.31t-2.18-1.08q-1.5 0-2.37 1.19-.88 1.18-.88 3.09m19.82-.62-.3.87h5.49l-.29-.89-2.42-7.46q-.28.99-2.48 7.48m-.83 2.46-1.38 4.07h-2l5.4-15.5h2.58l5.31 15.5h-2l-1.36-4.07Zm14.2-11.43v15.5h-1.86v-15.5Zm4.52 13.37q.39.39.39.97 0 .57-.39.96t-.97.39q-.57 0-.96-.39t-.39-.96q0-.58.39-.97t.96-.39q.58 0 .97.39"/><path fill="#096a2e" d="M477.616-.15c-3.738 0-91.848.267-91.848 25.899v188.502c0 25.632 88.11 25.899 91.848 25.899s91.848-.267 91.848-25.899V25.749c0-25.632-88.11-25.899-91.848-25.899m-80.634 39.783c17.889 9.078 53.934 12.282 80.634 12.282 26.433 0 62.745-3.204 80.634-12.282v36.045c-1.068 3.471-27.234 14.151-80.634 14.151-53.133 0-79.566-10.68-80.634-14.151ZM557.449 26.55c-.267.267-.801.534-1.068.801l-.267.267c-.534.267-1.068.534-1.87 1.068l.802 1.602-1.335-1.335c-.534.267-1.335.534-2.136.801l-.801.267c-.801.267-1.602.534-2.67 1.068l-.801.267c-1.068.267-1.87.534-2.937 1.068l-1.335.267c-1.068.267-2.136.534-3.471.801l-1.602.267-4.005.801c-.801.267-1.87.267-2.937.534l-2.67.534c-.801.267-1.87.267-2.67.534h-.534c-1.068.267-1.87.267-2.937.534s-2.136.267-3.471.534c-1.068.267-2.403.267-3.471.534-1.068 0-2.403.267-3.471.267-1.335.267-2.67.267-4.005.267-1.068 0-2.403.267-3.471.267-1.602 0-3.204.267-4.806.267l-3.471.267c-1.87 0-3.738.267-5.607.267h-24.297c-1.87 0-3.738 0-5.607-.267l-3.471-.267c-1.602 0-3.204-.267-4.806-.267-1.068 0-2.403-.267-3.471-.267-1.335 0-2.67-.267-4.005-.267-1.068 0-2.403-.267-3.471-.267-1.335-.267-2.403-.267-3.471-.534s-2.403-.267-3.471-.534-1.87-.267-2.937-.534l-1.87.267c-.8 0-1.601-.267-2.402-.267l-2.67-.534c-1.068-.267-2.136-.267-2.937-.534l-4.005-.801-1.602-.267a70 70 0 0 1-3.471-.801l-1.335-.534c-1.068-.267-2.136-.534-2.937-1.068l-1.068-.267-2.403-.801-.801-.267a8 8 0 0 1-2.136-1.068l-.267-.267c-.534-.267-1.335-.534-1.87-1.068l-.266-.267c-.534-.267-.801-.534-1.335-1.068l-.534-.534s0-.267.8-.801q.802-.801 2.404-1.602c.8-.534 1.602-.801 2.67-1.335.8-.534 1.869-.801 3.204-1.335 7.476-2.67 29.637-9.345 71.556-9.345 40.317 0 62.21 6.141 69.954 8.544 8.01 2.67 10.413 5.073 10.413 5.607-.534.267-.801.267-1.068.801M396.982 89.295c17.889 9.078 53.934 12.282 80.634 12.282 26.433 0 62.745-3.204 80.634-12.282v31.239c-1.068 3.471-27.234 14.151-80.634 14.151-53.133 0-79.566-10.68-80.634-14.151Zm0 45.123c17.889 8.811 54.2 12.282 80.634 12.282s62.745-3.204 80.634-12.282v37.113c-1.068 3.471-27.234 14.151-80.634 14.151-53.133 0-79.566-10.68-80.634-14.151Zm0 50.997c17.889 9.078 53.934 12.282 80.634 12.282 26.433 0 62.745-3.204 80.634-12.282v28.836c-1.068 3.471-27.234 14.151-80.634 14.151-53.133 0-79.566-10.68-80.634-14.151Z"/></g><path fill="transparent" stroke="transparent" d="M375.5 0h749v240h-749z"/></g></svg>